<svg xmlns="http://www.w3.org/2000/svg" width="586" height="400"><g fill="none" fill-rule="nonzero"><path fill="#B7B9C0" d="M388.723 394.28c20.676-9.642 29.653-34.306 20.011-54.981l-37.495 17.484-37.496 17.485c9.64 20.676 34.305 29.653 54.98 20.011Z"/><g fill="#9B9DA6"><path d="m388.723 394.28-17.485-37.497-37.496 17.485c9.64 20.676 34.306 29.653 54.981 20.011ZM221.797 259.68l28.563-13.32 4.564 9.787-28.563 13.319zM190.619 192.81l28.563-13.319 4.564 9.787-28.564 13.319z"/></g><path fill="#8EC1D6" d="m7.372 247.599 171.516-79.98 57.138 122.533L64.51 370.13z"/><g fill="#B7B9C0"><path d="m364.328 193.207 28.563-13.319 4.563 9.786-28.563 13.32zM333.148 126.337l28.563-13.319 4.564 9.786-28.563 13.32z"/></g><path fill="#BCE8F7" d="m578.635 130.4-171.516 79.98L349.98 87.848l171.516-79.98z"/><path fill="#EDEEF0" d="m375.767 366.496 71.607-33.39-4.483-9.613c-18.412-39.485-65.513-56.63-104.997-38.216-39.485 18.412-56.628 65.514-38.216 104.997l4.482 9.613 71.607-33.39Z"/><path fill="#DCDEE2" d="m375.767 366.496-37.873-81.22c-39.485 18.413-56.628 65.515-38.216 104.998l4.482 9.613 71.607-33.39Z"/><path fill="#D8D9DD" d="m305.111 312.867 37.496-17.484 37.496-17.485 8.833-31.927-77.912-167.082-30.135-13.756-37.497 17.484-37.495 17.485-8.833 31.927 77.912 167.083z"/><path fill="#B7B9C0" d="m254.044 105.46-10.652-22.843-37.495 17.485-8.833 31.927 77.912 167.083 30.135 13.755 37.496-17.484-10.651-22.842z"/><path fill="#EDEEF0" d="M585.81 133.005 524.11.687 342.797 85.234l61.7 132.318 181.312-84.547Zm-200.092 18.717 75.975-35.427 24.005 51.478-75.975 35.428-24.005-51.479Zm109.766 11.487-24.005-51.478 75.975-35.428 24.005 51.479-75.975 35.427Zm47.406-96.693-75.975 35.427-24.005-51.477 75.976-35.428 24.004 51.478ZM433.125 55.03l24.005 51.478-75.975 35.428-24.005-51.48 75.975-35.426Z"/><path fill="#DCDEE2" d="m61.89 377.312 181.31-84.546-61.7-132.317L.19 244.996l61.7 132.316Zm-18.781-65.828 75.975-35.428 24.004 51.478-75.975 35.427-24.004-51.477Zm109.765 11.486-24.005-51.477 75.975-35.428 24.005 51.478-75.975 35.427Zm47.408-96.692-75.975 35.427-24.004-51.478 75.975-35.428 24.004 51.479ZM90.515 214.792l24.005 51.477-75.975 35.428-24.005-51.478 75.975-35.427Z"/><path fill="#EDEEF0" d="m331.956 272.54 56.98-26.57-77.912-167.08-56.98 26.569-56.98 26.57 77.912 167.083z"/><path fill="#DCDEE2" d="m197.065 132.024 56.973-26.567 77.91 167.078-56.974 26.567z"/></g></svg>
